<?xml version="1.0" ?><svg id="Christmas_Icon" style="enable-background:new 0 0 56 56;" version="1.1" viewBox="0 0 56 56" xml:space="preserve" xmlns="http://www.w3.org/2000/svg" xmlns:xlink="http://www.w3.org/1999/xlink"><style type="text/css">
	.st0{fill:#F5F5F5;stroke:#3E2723;stroke-linecap:round;stroke-linejoin:round;stroke-miterlimit:10;}
	.st1{fill:#E0E0E0;}
	.st2{fill:#8D6E63;stroke:#3E2723;stroke-linecap:round;stroke-linejoin:round;stroke-miterlimit:10;}
	.st3{fill:#5D4037;}
	.st4{fill:none;stroke:#3E2723;stroke-linecap:round;stroke-linejoin:round;stroke-miterlimit:10;}
	.st5{fill:#FFD54F;stroke:#3E2723;stroke-linecap:round;stroke-linejoin:round;stroke-miterlimit:10;}
	.st6{fill:#E53935;stroke:#3E2723;stroke-linecap:round;stroke-linejoin:round;stroke-miterlimit:10;}
	.st7{fill:#B71C1C;}
	.st8{fill:#FFA000;}
	.st9{fill:#FFECB3;stroke:#3E2723;stroke-linecap:round;stroke-linejoin:round;stroke-miterlimit:10;}
	.st10{fill:#FFE082;}
	.st11{fill:#3E2723;}
	.st12{fill:#81C784;stroke:#3E2723;stroke-linecap:round;stroke-linejoin:round;stroke-miterlimit:10;}
	.st13{fill:#43A047;}
	.st14{fill:#263238;}
	.st15{fill:#4E342E;stroke:#3E2723;stroke-linecap:round;stroke-linejoin:round;stroke-miterlimit:10;}
	.st16{fill:none;}
	.st17{fill:#A1887F;stroke:#3E2723;stroke-linecap:round;stroke-linejoin:round;stroke-miterlimit:10;}
	.st18{fill:#6D4C41;}
	.st19{fill:#6D4C41;stroke:#3E2723;stroke-linecap:round;stroke-linejoin:round;stroke-miterlimit:10;}
	.st20{fill:#E0E0E0;stroke:#3E2723;stroke-miterlimit:10;}
	.st21{fill:#D81B60;stroke:#3E2723;stroke-linecap:round;stroke-linejoin:round;stroke-miterlimit:10;}
	.st22{fill:#E0E0E0;stroke:#3E2723;stroke-linecap:round;stroke-linejoin:round;stroke-miterlimit:10;}
	.st23{fill:#FBC02D;stroke:#3E2723;stroke-linecap:round;stroke-linejoin:round;stroke-miterlimit:10;}
</style><g id="Gift"><path class="st6" d="M29.2,16.5L29.2,16.5c-1.6-1.6-1.6-4.1,0-5.7l5.7-5.7c1.6-1.6,4.1-1.6,5.7,0l0,0c1.6,1.6,1.6,4.1,0,5.7   l-5.7,5.7C33.3,18,30.7,18,29.2,16.5z"/><path class="st6" d="M26.8,16.5L26.8,16.5c1.6-1.6,1.6-4.1,0-5.7l-5.7-5.7c-1.6-1.6-4.1-1.6-5.7,0l0,0c-1.6,1.6-1.6,4.1,0,5.7   l5.7,5.7C22.7,18,25.3,18,26.8,16.5z"/><path class="st5" d="M45.5,52h-35C9.1,52,8,50.9,8,49.5V26h40v23.5C48,50.9,46.9,52,45.5,52z"/><path class="st5" d="M49.5,26h-43C5.1,26,4,24.9,4,23.5v-8C4,14.1,5.1,13,6.5,13h43c1.4,0,2.5,1.1,2.5,2.5v8   C52,24.9,50.9,26,49.5,26z"/><path class="st6" d="M31,13h-6c-0.6,0-1,0.4-1,1v37c0,0.6,0.4,1,1,1h6c0.6,0,1-0.4,1-1V14C32,13.4,31.6,13,31,13z"/><path class="st8" d="M47.5,26.5H43v23c0,0.8-0.4,1.5-1,2h3.5c1.1,0,2-0.9,2-2V26.5z"/><path class="st8" d="M47,15.5v8c0,0.8-0.4,1.5-1,2h3.5c1.1,0,2-0.9,2-2v-8c0-1.1-0.9-2-2-2H46C46.6,14,47,14.7,47,15.5z"/></g></svg>